<?xml version="1.0" standalone="no"?><!DOCTYPE svg PUBLIC "-//W3C//DTD SVG 1.1//EN" "http://www.w3.org/Graphics/SVG/1.1/DTD/svg11.dtd"><svg t="1692240006276" class="icon" viewBox="0 0 1024 1024" version="1.1" xmlns="http://www.w3.org/2000/svg" p-id="92216" xmlns:xlink="http://www.w3.org/1999/xlink" width="200" height="200"><path d="M501.333333 590.933333L106.666667 354.133333c-10.666667-6.4-12.8-19.2-6.4-29.866666 0-2.133333 2.133333-4.266667 6.4-6.4L501.333333 81.066667c6.4-4.266667 14.933333-4.266667 21.333334 0L917.333333 317.866667c10.666667 6.4 12.8 19.2 6.4 29.866666-2.133333 2.133333-4.266667 6.4-6.4 6.4L522.666667 590.933333c-6.4 4.266667-14.933333 4.266667-21.333334 0z" fill="#49a7ff" p-id="92217"></path><path d="M512 627.2c-8.533333 0-19.2-2.133333-27.733333-8.533333L89.6 381.866667c-25.6-14.933333-34.133333-49.066667-17.066667-72.533334 4.266667-6.4 10.666667-12.8 17.066667-17.066666L484.266667 53.333333c17.066667-10.666667 38.4-10.666667 53.333333 0l396.8 236.8c12.8 8.533333 21.333333 19.2 23.466667 32 4.266667 12.8 2.133333 27.733333-6.4 40.533334-4.266667 6.4-10.666667 12.8-17.066667 17.066666L539.733333 618.666667c-8.533333 6.4-19.2 8.533333-27.733333 8.533333z m6.4-64zM138.666667 337.066667L512 561.066667l375.466667-224L512 113.066667 138.666667 337.066667z" fill="#49a7ff" p-id="92218"></path><path d="M512 802.133333c-8.533333 0-19.2-2.133333-25.6-6.4l-426.666667-256c-14.933333-8.533333-19.2-27.733333-10.666666-44.8 8.533333-14.933333 27.733333-19.2 44.8-10.666666L512 736l420.266667-251.733333c14.933333-8.533333 34.133333-4.266667 44.8 10.666666 8.533333 14.933333 4.266667 34.133333-10.666667 44.8l-424.533333 256c-10.666667 4.266667-21.333333 6.4-29.866667 6.4z" fill="#49a7ff" p-id="92219"></path><path d="M512 977.066667c-8.533333 0-19.2-2.133333-25.6-6.4l-426.666667-256c-14.933333-8.533333-19.2-27.733333-10.666666-44.8 8.533333-14.933333 27.733333-19.2 44.8-10.666667L512 910.933333l420.266667-251.733333c14.933333-8.533333 34.133333-4.266667 44.8 10.666667 8.533333 14.933333 4.266667 34.133333-10.666667 44.8l-424.533333 256c-10.666667 4.266667-21.333333 6.4-29.866667 6.4z" fill="#49a7ff" p-id="92220"></path></svg>