<?xml version="1.0" standalone="no"?><!DOCTYPE svg PUBLIC "-//W3C//DTD SVG 1.1//EN" "http://www.w3.org/Graphics/SVG/1.1/DTD/svg11.dtd"><svg t="1692239338912" class="icon" viewBox="0 0 1068 1024" version="1.1" xmlns="http://www.w3.org/2000/svg" p-id="37884" xmlns:xlink="http://www.w3.org/1999/xlink" width="208.59375" height="200"><path d="M144.737666 226.752864c18.786358 36.880676 55.532003 58.502712 94.32001 75.837473 7.274861 3.207015 14.465327 5.586958 21.976494 8.608305 25.099115 10.178054 52.96639 16.710238 81.238763 23.883825 12.456723 3.088862 25.335421 4.304152 37.994692 7.359256 3.105741 0.303823 6.211482 0.810193 9.283465 1.114016 12.085384 2.734403 25.673002 3.30829 38.416668 5.536321 3.949693 0.35446 7.781232 0.675161 11.730925 0.962105 13.672013 2.295548 29.200719 2.295548 43.277828 3.544595 4.658612 0.118153 9.367861 0.253185 14.093989 0.573887 6.059571 0.86083 13.1994 0.540129 19.883495 0.540129 7.359256 0 15.10673 0.270064 22.854204 0.270065 10.380602-0.084395 20.8456-0.219427 31.226202-0.270065 4.810523-0.253185 9.604167-0.405097 14.41469-0.540129 3.932814-0.320702 7.882506-0.455734 11.81532-0.573887 1.535992-0.236306 3.055104-0.388218 4.591095-0.50637 4.52358 0.118153 10.380602-0.35446 14.667876-1.063379 1.856693-0.050637 3.628991-0.050637 5.485684-0.16879 4.996192-0.86083 10.718183-0.86083 15.714375-1.603508 2.346185-0.219427 4.69237-0.35446 6.987918-0.52325 8.405756-1.502234 17.756738-1.552871 25.943066-3.325169 3.274531-0.35446 6.515305-0.725798 9.840473-1.130894 9.840473-1.519113 19.680947-3.139499 29.504542-4.709249 8.118813-2.143637 17.030939-3.460201 24.913445-5.266257 2.092999-0.472613 4.16912-0.776435 6.26212-1.130895 6.312757-1.991725 13.064368-2.903193 19.579672-4.726128 14.279658-4.16912 28.863138-8.017538 42.332603-12.828061 9.097796-3.139499 17.672342-6.025813 26.280647-9.38474 9.536651-3.764023 18.836995-8.523909 27.698485-12.777424 6.869764-3.358927 13.55386-6.582821 19.782221-10.616909 6.363394-3.949693 12.574876-8.16945 18.499415-12.524239 1.316564-0.995863 2.835677-1.957967 4.202878-2.936951 1.671024-1.468475 3.223894-2.903193 4.894918-4.270394 11.646529-9.182191 24.710897-24.086373 30.686073-38.5517 2.059241-4.709249 3.325169-9.789836 4.793644-15.427432 0.151911-1.468475 0.236306-2.95383 0.388217-4.456063 2.396822-12.473602-2.092999-24.980962-5.72199-33.471113-7.443651-17.165972-20.643051-30.39913-34.652645-41.16795-2.700645-2.211153-5.350652-4.675491-8.085054-6.565942-5.485684-3.527717-11.055763-6.751611-16.490811-10.329965-8.220087-5.316894-17.36852-9.334103-26.516953-13.840803a334.711128 334.711128 0 0 0-47.76765-19.225213c-5.519442-1.73854-10.667546-2.95383-16.288262-4.878039-20.794963-6.903523-43.750441-11.443981-66.570887-16.440173-10.616909-2.329306-21.53764-3.358927-32.238943-5.536322l-36.019847-4.709248c-5.570079-0.911468-11.342707-0.810193-16.625842-1.721661-1.90733-0.050637-3.764023-0.185669-5.620717-0.18567-3.679628-0.675161-7.831869-0.35446-11.950352-0.978983a109.882473 109.882473 0 0 0-5.654474-0.69204 52.730084 52.730084 0 0 0-5.114345-0.219428 669.304103 669.304103 0 0 0-13.891441-0.776435c-2.278669-0.455734-5.38441 0.253185-6.987917-0.641403h-88.429229v0.354459c-5.873902 0.101274-12.693029 0.101274-18.448777 1.063379-4.624854 0.624524-9.300345 0.253185-13.486344 0.894589-3.274531 0.455734-6.903523 0.270064-9.958627 0.776435-1.704782 0.118153-3.426443 0.118153-5.131224 0.219427-4.607975 0.69204-9.789836 0.86083-14.195263 1.552871-2.211153 0.219427-4.624854 0.35446-6.903522 0.573887-9.958627 2.008604-20.828721 2.211153-30.534162 4.185999-5.114346 1.029621-9.89111 1.130895-15.072972 2.07612-12.000989 2.295548-24.879687 3.915935-36.188637 7.12295-3.831539 1.097137-7.359256 1.21529-11.173916 2.177395-8.405756 2.396822-16.912786 4.304152-25.402938 6.397151-6.278998 1.56975-12.659271 3.949693-19.073301 5.620717-6.127087 1.56975-12.439844 4.16912-18.263109 6.295877-9.013401 3.190136-17.520431 5.992055-26.128735 9.621046-5.435047 2.447459-10.76882 5.232499-16.372658 7.291741-2.228032 1.232169-4.456063 2.346185-6.734732 3.578354-8.287603 4.050967-16.541448 8.16945-24.052615 13.233158-4.354789 2.95383-8.709579 6.397152-13.182521 9.182191-4.675491 2.886314-8.422635 6.836006-12.608634 10.043022-8.726458 6.785369-15.427432 15.359916-21.638914 24.457711-1.957967 2.869435-4.135362 5.992055-5.586958 9.21595-1.671024 3.544596-2.498096 7.257982-4.16912 11.157037-2.396822 5.890781-2.177395 13.1994-2.177395 21.503882v7.47741c1.097137 1.56975 1.097137 4.00033 1.704782 5.941418 1.114016 3.544596 2.160516 7.308619 3.831539 10.448118z m0.708919 316.684326c4.084725 8.186329 9.688562 15.140488 15.089852 22.027132 1.400959 1.38408 2.835677 2.818798 4.236636 4.16912 7.12295 8.574546 18.516294 16.440173 28.036065 22.786688 6.532184 4.371668 13.486343 9.114675 20.794963 12.84494 3.983451 1.957967 7.831869 3.595233 11.865957 5.840144 3.426443 1.721661 7.190466 3.730265 10.836336 5.316894 10.566272 4.304152 21.318213 8.473272 32.087032 12.878698 9.03028 3.493959 18.144955 5.451926 27.529695 8.574546 24.001978 8.000659 50.231988 12.355449 76.664546 18.195593l29.656453 4.793644c3.628991 0.337581 7.274861 0.810193 10.886973 1.147774 11.714046 2.008604 24.66026 2.160516 36.661249 4.270394 2.886314 0.050637 5.840144 0.388218 8.810852 0.52325 10.431239 1.637266 22.432228 0.675161 33.099775 2.312426 1.873572 0.135032 3.780902 0.135032 5.72199 0.135033l18.229351 0.421975c7.224224 1.114016 15.883165 0.438855 23.765671 0.438855 8.017538 0 16.828391 0.675161 24.339559-0.438855 8.051296-0.135032 16.085714-0.472613 24.153889-0.573887 5.283136-0.86083 11.207675 0 16.862149-0.962104 4.084725-0.624524 8.642062-0.151911 13.098126-0.860831 8.034417-1.249048 17.030939-1.198411 24.812171-2.59937 1.417838 0 2.987588-0.135032 4.557338-0.135032 12.034747-1.535992 24.086373-3.12262 36.019846-4.557338 21.773946-4.017209 43.109038-7.376135 63.819605-12.119142a573.431223 573.431223 0 0 0 51.514794-14.752271c9.452256-3.12262 18.398141-5.806386 27.360905-9.53665 6.515305-2.683765 12.929336-5.603837 19.394003-8.186329 2.346185-1.198411 4.69237-2.447459 6.987918-3.493959 17.030939-7.190466 32.002637-17.520431 45.961593-27.884154a112.920698 112.920698 0 0 0 11.595893-9.722321c1.417838-1.38408 2.835677-2.633128 4.304152-3.915934 3.426443-4.067846 6.903523-8.051296 10.363723-11.967231 1.417838-1.485354 2.160516-3.409564 3.325169-4.979313 5.536321-8.101934 9.840473-17.385399 12.136021-28.694348 1.164653-5.992055 0.69204-13.469464 0.69204-20.508019V300.649249c0-6.582821 0.725798-14.904182-0.101274-20.592414-0.286943-0.185669-0.590766-0.506371-1.029621-0.185669-0.827072 0.894588-0.877709 4.101604-1.265927 5.620716l-2.059241 4.270394c-5.181862 8.929006-13.165642 16.288262-21.436366 22.280317-13.418827 9.486014-28.339888 17.19973-43.649167 24.997841-1.772298 0.978984-3.47708 1.21529-5.283136 2.042362-5.198741 2.498096-11.005126 5.232499-16.49081 7.207345-2.211153 0.810193-4.16912 1.21529-6.312757 2.177395-13.266916 5.536321-27.985429 10.498756-42.433876 14.667875-17.469794 4.979313-35.327806 9.148433-53.337729 13.840803-10.279328 2.751282-21.149422 3.882176-31.462509 6.515305-2.78504 0.337581-5.620716 0.641403-8.371998 1.198411-10.363723 2.07612-21.824583 3.527717-32.542766 5.38441-6.565942 1.130895-13.807045 1.367201-20.372987 2.633129-12.524239 1.265927-25.048478 2.498096-37.623354 3.713386-4.540459 0.759556-9.418498 0.405097-13.604496 0.995862h-3.021346c-4.354789 0.35446-8.658941 0.624524-13.013731 0.911468-4.624854 0.067516-9.215949 0.219427-13.840803 0.270064-3.055104 0.506371-6.734732-0.050637-10.161175 0.455734-6.852885 1.029621-14.921061 0.253185-22.246559 0.253186-7.241103 0-16.170109 0.776435-22.803567-0.253186-3.207015 0-6.312757-0.101274-9.519772-0.101274-4.152241-0.624524-9.38474 0.151911-13.89144-0.540129l-31.108049-1.890451c-5.283136-0.86083-11.528376-0.86083-16.760875-1.721661-1.637266-0.050637-3.30829-0.151911-4.928676-0.185669-5.232499-0.911468-10.836336-0.911468-16.372657-1.73854-13.250037-2.346185-26.92205-3.038225-40.020176-5.586958-10.313086-2.025483-20.727447-3.561475-31.108049-5.57008-5.181862-1.029621-10.988247-2.548733-16.119472-3.578354-2.329306-0.540129-4.084725-0.540129-6.414031-1.147774-6.95416-1.890451-14.465327-3.493959-21.318212-5.333772-3.207015-0.810193-6.127087-1.0465-9.266587-2.126758-4.371668-1.502234-9.300345-2.126758-13.840803-3.730265-8.253845-2.886314-17.19973-5.536321-25.402937-8.118813-36.424943-11.376465-70.723128-26.297526-98.387855-46.484843-9.739199-7.038555-21.655793-16.929665-23.833188-31.293718-0.219427 0-0.52325 0-0.742677-0.050637v245.657375c1.080258 1.586629 1.147774 3.831539 1.704782 6.042692 1.0465 3.932814 2.650007 8.253845 4.523579 11.882836z m795.137258 45.944714c-0.286943-0.084395-0.590766-0.489492-1.029621-0.084395-0.827072 0.86083-0.877709 4.067846-1.265927 5.654475-0.675161 1.249048-1.367201 2.78504-2.059241 4.219757-5.181862 8.895248-13.165642 16.372657-21.436366 22.314075-13.418827 9.536651-28.339888 17.149093-43.649167 24.997841-1.772298 0.962105-3.47708 1.147774-5.283136 2.008604-5.198741 2.396822-11.005126 5.232499-16.49081 7.139829-2.211153 0.86083-4.16912 1.249048-6.312757 2.160516-13.266916 5.603837-27.985429 10.583151-42.433876 14.75227-17.469794 4.894918-35.327806 9.148433-53.337729 13.89144-10.279328 2.734403-21.149422 3.831539-31.462509 6.414031-2.78504 0.388218-5.620716 0.725798-8.371998 1.198411-10.363723 2.160516-21.824583 3.544596-32.542766 5.418168-6.565942 1.147774-13.807045 1.38408-20.372987 2.582491-12.524239 1.350322-25.048478 2.582491-37.623354 3.730266-4.540459 0.810193-9.418498 0.388218-13.604496 1.097136h-3.021346c-4.354789 0.236306-8.658941 0.52325-13.013731 0.860831-4.624854 0.050637-9.215949 0.185669-13.840803 0.236306-3.055104 0.489492-6.734732-0.050637-10.161175 0.388218-6.852885 1.097137-14.921061 0.337581-22.246559 0.33758-7.241103 0-16.170109 0.776435-22.803567-0.33758-3.207015 0-6.312757-0.050637-9.519772-0.050637-4.152241-0.573887-9.38474 0.151911-13.89144-0.52325-10.431239-0.675161-20.744326-1.299685-31.108049-1.924209-5.283136-0.86083-11.528376-0.86083-16.760875-1.637266-1.637266-0.135032-3.30829-0.185669-4.928676-0.286944-5.232499-0.86083-10.836336-0.86083-16.372657-1.772297-13.250037-2.244911-26.92205-2.920072-40.020176-5.502564-10.313086-2.109879-20.727447-3.493959-31.108049-5.603837-5.181862-0.962105-10.988247-2.548733-16.119472-3.544596-2.329306-0.573887-4.084725-0.573887-6.414031-1.097137-6.95416-1.957967-14.465327-3.544596-21.318212-5.418168-3.207015-0.86083-6.127087-1.063379-9.266587-2.059241-4.371668-1.535992-9.300345-2.244911-13.840803-3.882177-8.253845-2.886314-17.19973-5.451926-25.402937-8.051296-36.424943-11.393344-70.723128-26.246889-98.387855-46.400448-9.739199-7.190466-21.655793-16.963423-23.833188-31.327477-0.219427 0-0.52325 0-0.742677-0.101274v245.623618c1.080258 1.671024 1.147774 3.915935 1.704782 6.07645 1.029621 4.017209 2.650007 8.287603 4.5067 11.967231 4.084725 8.236966 9.688562 15.140488 15.089852 22.027131 1.400959 1.350322 2.835677 2.818798 4.236636 4.118483 7.12295 8.625183 18.516294 16.473931 28.036065 22.803567 6.532184 4.405426 13.486343 9.148433 20.794963 12.777425 3.983451 2.109879 7.831869 3.64587 11.865957 5.840143 3.426443 1.772298 7.190466 3.831539 10.836336 5.367531 10.566272 4.304152 21.318213 8.574546 32.087032 12.878699 9.03028 3.493959 18.144955 5.502563 27.529695 8.658941 24.001978 7.950022 50.231988 12.304812 76.664546 18.144955a1617.517266 1617.517266 0 0 1 29.656452 4.793644c3.628991 0.337581 7.274861 0.675161 10.886974 1.097137 11.714046 2.059241 24.66026 2.211153 36.661249 4.304152 2.886314 0.101274 5.840144 0.388218 8.810852 0.438855 10.431239 1.671024 22.432228 0.759556 33.099775 2.346185 1.873572 0.101274 3.780902 0.101274 5.72199 0.151911 6.110208 0.135032 12.102263 0.286943 18.229351 0.388218 7.224224 1.198411 15.883165 0.52325 23.765671 0.52325 8.017538 0 16.828391 0.675161 24.339559-0.52325 8.051296-0.101274 16.085714-0.388218 24.153889-0.52325 5.283136-0.810193 11.207675 0 16.862149-0.86083 4.084725-0.675161 8.642062-0.286943 13.098126-0.911468 8.034417-1.249048 17.030939-1.249048 24.812171-2.548733 1.417838 0 2.987588-0.185669 4.557338-0.286944 12.034747-1.434717 24.086373-3.021346 36.019846-4.557337 21.773946-3.882176 43.109038-7.325498 63.819605-12.119142a584.706414 584.706414 0 0 0 51.514794-14.650997c9.452256-3.105741 18.398141-5.840144 27.360905-9.570409 6.515305-2.683765 12.929336-5.5532 19.394003-8.135691 2.346185-1.198411 4.69237-2.498096 6.987918-3.544596 17.030939-7.190466 32.002637-17.486673 45.961593-27.867276 4.152241-2.970709 7.933143-6.278998 11.595893-9.772957 1.417838-1.333443 2.835677-2.582491 4.304152-3.831539 3.426443-4.017209 6.903523-8.051296 10.363723-11.967231 1.417838-1.535992 2.160516-3.342048 3.325169-4.979314a77.255312 77.255312 0 0 0 12.136021-28.728106c1.164653-5.992055 0.69204-13.418827 0.69204-20.508019V609.974319c0.016879-6.464668 0.742677-14.904182-0.084395-20.592415z" fill="#55d2e0" p-id="37885"></path></svg>