<?xml version="1.0" standalone="no"?><!DOCTYPE svg PUBLIC "-//W3C//DTD SVG 1.1//EN" "http://www.w3.org/Graphics/SVG/1.1/DTD/svg11.dtd"><svg t="1692239217455" class="icon" viewBox="0 0 1024 1024" version="1.1" xmlns="http://www.w3.org/2000/svg" p-id="24882" xmlns:xlink="http://www.w3.org/1999/xlink" width="200" height="200"><path d="M249.578474 539.132167a15.614653 15.614653 0 0 1 15.358675-11.092377h91.725422a15.657316 15.657316 0 0 1 15.785305 12.798896 224.321986 224.321986 0 0 0 219.714383 179.184545 234.262462 234.262462 0 0 0 55.035254-6.826078 15.827968 15.827968 0 0 1 17.918454 7.252708l46.076026 79.779786a127.988961 127.988961 0 1 0 212.888305 97.27161 127.477005 127.477005 0 0 0-145.480786-128.415591 16.510576 16.510576 0 0 1-16.211935-7.679337l-38.396688-66.98089a15.358675 15.358675 0 0 1 3.839669-20.478234 223.895356 223.895356 0 0 0 31.14398-326.79848 16.42525 16.42525 0 0 1 0.85326-22.184753l62.714591-62.287961a15.57199 15.57199 0 0 1 17.918455-2.986409 133.620475 133.620475 0 0 0 55.461883 12.372266 127.988961 127.988961 0 1 0-127.988961-127.988961 125.429182 125.429182 0 0 0 12.372266 55.035253 16.126609 16.126609 0 0 1-2.986409 18.345085l-72.527078 72.527078a16.126609 16.126609 0 0 1-18.345084 2.986409 219.885035 219.885035 0 0 0-94.711832-20.904864 223.426063 223.426063 0 0 0-219.287753 179.184545 16.42525 16.42525 0 0 1-15.785305 12.798896H262.37737a15.699979 15.699979 0 0 1-14.505416-10.239116 127.988961 127.988961 0 1 0 1.70652 85.325974z" fill="#4165da" p-id="24883"></path></svg>