<?xml version="1.0" standalone="no"?><!DOCTYPE svg PUBLIC "-//W3C//DTD SVG 1.1//EN" "http://www.w3.org/Graphics/SVG/1.1/DTD/svg11.dtd"><svg t="1692239825416" class="icon" viewBox="0 0 1024 1024" version="1.1" xmlns="http://www.w3.org/2000/svg" p-id="86415" xmlns:xlink="http://www.w3.org/1999/xlink" width="200" height="200"><path d="M516.608 492.032l421.248-243.2L506.944 0 85.632 243.2l430.976 248.832zM469.696 563.2L60.48 327.104v190.4l409.216 236.288zM349.76 632.832a46.912 46.912 0 1 1 33.216-13.696 46.912 46.912 0 0 1-33.216 13.696z" fill="#7cd7b8" p-id="86416"></path><path d="M548.032 759.04l410.368-236.8V338.432l-410.368 236.8z m5.056 96v168.64l410.432-236.8V618.304l-410.432 236.8z" fill="#7cd7b8" p-id="86417"></path><path d="M469.696 849.92L60.48 613.888v173.184l409.216 236.224zM349.76 914.368a46.912 46.912 0 1 1 33.216-13.696 46.976 46.976 0 0 1-33.216 13.696z" fill="#7cd7b8" p-id="86418"></path></svg>